<mxfile host="drawio-plugin" modified="2021-11-01T14:13:33.633Z" agent="5.0 (X11; Linux x86_64) AppleWebKit/537.36 (KHTML, like Gecko) Chrome/89.0.4389.114 Safari/537.36" etag="ebyrFPNNE4aKkn3bq1Rw" version="14.7.4" type="embed"><diagram id="C5RBs43oDa-KdzZeNtuy" name="Page-1"><mxGraphModel dx="677" dy="385" grid="1" gridSize="11" guides="1" tooltips="1" connect="1" arrows="1" fold="1" page="1" pageScale="1" pageWidth="1169" pageHeight="827" math="0" shadow="0"><root><mxCell id="WIyWlLk6GJQsqaUBKTNV-0"/><mxCell id="WIyWlLk6GJQsqaUBKTNV-1" parent="WIyWlLk6GJQsqaUBKTNV-0"/><mxCell id="36" style="edgeStyle=orthogonalEdgeStyle;rounded=0;orthogonalLoop=1;jettySize=auto;html=1;entryX=0.5;entryY=1;entryDx=0;entryDy=0;dashed=1;strokeWidth=2;endArrow=block;endFill=0;strokeColor=#000000;" parent="WIyWlLk6GJQsqaUBKTNV-1" source="0" edge="1"><mxGeometry relative="1" as="geometry"><mxPoint x="439" y="363" as="targetPoint"/></mxGeometry></mxCell><mxCell id="0" value="IteratorNormal" style="swimlane;fontStyle=1;align=center;verticalAlign=top;childLayout=stackLayout;horizontal=1;startSize=26;horizontalStack=0;resizeParent=1;resizeParentMax=0;resizeLast=0;collapsible=1;marginBottom=0;" parent="WIyWlLk6GJQsqaUBKTNV-1" vertex="1"><mxGeometry x="419" y="509" width="256" height="170" as="geometry"/></mxCell><mxCell id="1" value="- collection: CollectionInterface" style="text;strokeColor=none;fillColor=none;align=left;verticalAlign=top;spacingLeft=4;spacingRight=4;overflow=hidden;rotatable=0;points=[[0,0.5],[1,0.5]];portConstraint=eastwest;" parent="0" vertex="1"><mxGeometry y="26" width="256" height="26" as="geometry"/></mxCell><mxCell id="68" value="- position: int" style="text;strokeColor=none;fillColor=none;align=left;verticalAlign=top;spacingLeft=4;spacingRight=4;overflow=hidden;rotatable=0;points=[[0,0.5],[1,0.5]];portConstraint=eastwest;" parent="0" vertex="1"><mxGeometry y="52" width="256" height="26" as="geometry"/></mxCell><mxCell id="2" value="" style="line;strokeWidth=1;fillColor=none;align=left;verticalAlign=middle;spacingTop=-1;spacingLeft=3;spacingRight=3;rotatable=0;labelPosition=right;points=[];portConstraint=eastwest;" parent="0" vertex="1"><mxGeometry y="78" width="256" height="8" as="geometry"/></mxCell><mxCell id="41" value="&lt;&lt;constructor&gt;&gt;&#10;+IteratorNormal(col: CollectionInterface)" style="text;strokeColor=none;fillColor=none;align=center;verticalAlign=top;spacingLeft=4;spacingRight=4;overflow=hidden;rotatable=0;points=[[0,0.5],[1,0.5]];portConstraint=eastwest;" parent="0" vertex="1"><mxGeometry y="86" width="256" height="52" as="geometry"/></mxCell><mxCell id="38" value="..." style="text;strokeColor=none;fillColor=none;align=left;verticalAlign=top;spacingLeft=4;spacingRight=4;overflow=hidden;rotatable=0;points=[[0,0.5],[1,0.5]];portConstraint=eastwest;" parent="0" vertex="1"><mxGeometry y="138" width="256" height="32" as="geometry"/></mxCell><mxCell id="35" style="edgeStyle=orthogonalEdgeStyle;rounded=0;orthogonalLoop=1;jettySize=auto;html=1;entryX=0.5;entryY=1;entryDx=0;entryDy=0;endArrow=block;endFill=0;dashed=1;strokeWidth=2;fillColor=#6d8764;strokeColor=#000000;" parent="WIyWlLk6GJQsqaUBKTNV-1" source="30" edge="1"><mxGeometry relative="1" as="geometry"><mxPoint x="439" y="363" as="targetPoint"/></mxGeometry></mxCell><mxCell id="30" value="IteratorReverse" style="swimlane;fontStyle=1;align=center;verticalAlign=top;childLayout=stackLayout;horizontal=1;startSize=26;horizontalStack=0;resizeParent=1;resizeParentMax=0;resizeLast=0;collapsible=1;marginBottom=0;" parent="WIyWlLk6GJQsqaUBKTNV-1" vertex="1"><mxGeometry x="163" y="509" width="240" height="170" as="geometry"/></mxCell><mxCell id="31" value="- collection: CollectionInterface" style="text;strokeColor=none;fillColor=none;align=left;verticalAlign=top;spacingLeft=4;spacingRight=4;overflow=hidden;rotatable=0;points=[[0,0.5],[1,0.5]];portConstraint=eastwest;" parent="30" vertex="1"><mxGeometry y="26" width="240" height="26" as="geometry"/></mxCell><mxCell id="67" value="- position: int" style="text;strokeColor=none;fillColor=none;align=left;verticalAlign=top;spacingLeft=4;spacingRight=4;overflow=hidden;rotatable=0;points=[[0,0.5],[1,0.5]];portConstraint=eastwest;" parent="30" vertex="1"><mxGeometry y="52" width="240" height="26" as="geometry"/></mxCell><mxCell id="32" value="" style="line;strokeWidth=1;fillColor=none;align=left;verticalAlign=middle;spacingTop=-1;spacingLeft=3;spacingRight=3;rotatable=0;labelPosition=right;points=[];portConstraint=eastwest;" parent="30" vertex="1"><mxGeometry y="78" width="240" height="8" as="geometry"/></mxCell><mxCell id="33" value="&lt;&lt;constructor&gt;&gt;&#10;+IteratorReverse(col: CollectionInterface)" style="text;strokeColor=none;fillColor=none;align=center;verticalAlign=top;spacingLeft=4;spacingRight=4;overflow=hidden;rotatable=0;points=[[0,0.5],[1,0.5]];portConstraint=eastwest;" parent="30" vertex="1"><mxGeometry y="86" width="240" height="52" as="geometry"/></mxCell><mxCell id="39" value="..." style="text;strokeColor=none;fillColor=none;align=left;verticalAlign=top;spacingLeft=4;spacingRight=4;overflow=hidden;rotatable=0;points=[[0,0.5],[1,0.5]];portConstraint=eastwest;" parent="30" vertex="1"><mxGeometry y="138" width="240" height="32" as="geometry"/></mxCell><mxCell id="51" style="edgeStyle=orthogonalEdgeStyle;rounded=0;orthogonalLoop=1;jettySize=auto;html=1;dashed=1;endArrow=block;endFill=0;strokeColor=#000000;strokeWidth=2;" parent="WIyWlLk6GJQsqaUBKTNV-1" source="46" edge="1"><mxGeometry relative="1" as="geometry"><mxPoint x="879" y="383" as="targetPoint"/></mxGeometry></mxCell><mxCell id="46" value="Collection" style="swimlane;fontStyle=1;align=center;verticalAlign=top;childLayout=stackLayout;horizontal=1;startSize=26;horizontalStack=0;resizeParent=1;resizeParentMax=0;resizeLast=0;collapsible=1;marginBottom=0;" parent="WIyWlLk6GJQsqaUBKTNV-1" vertex="1"><mxGeometry x="767" y="509" width="223" height="154" as="geometry"/></mxCell><mxCell id="70" value="- collection: int" style="text;strokeColor=none;fillColor=none;align=left;verticalAlign=top;spacingLeft=4;spacingRight=4;overflow=hidden;rotatable=0;points=[[0,0.5],[1,0.5]];portConstraint=eastwest;" parent="46" vertex="1"><mxGeometry y="26" width="223" height="26" as="geometry"/></mxCell><mxCell id="48" value="" style="line;strokeWidth=1;fillColor=none;align=left;verticalAlign=middle;spacingTop=-1;spacingLeft=3;spacingRight=3;rotatable=0;labelPosition=right;points=[];portConstraint=eastwest;" parent="46" vertex="1"><mxGeometry y="52" width="223" height="8" as="geometry"/></mxCell><mxCell id="90" value="+ selectIterator(string): void" style="text;strokeColor=none;fillColor=none;align=left;verticalAlign=top;spacingLeft=4;spacingRight=4;overflow=hidden;rotatable=0;points=[[0,0.5],[1,0.5]];portConstraint=eastwest;" vertex="1" parent="46"><mxGeometry y="60" width="223" height="32" as="geometry"/></mxCell><mxCell id="71" value="+ getIteretor(): IteratorInterface" style="text;strokeColor=none;fillColor=none;align=left;verticalAlign=top;spacingLeft=4;spacingRight=4;overflow=hidden;rotatable=0;points=[[0,0.5],[1,0.5]];portConstraint=eastwest;" parent="46" vertex="1"><mxGeometry y="92" width="223" height="32" as="geometry"/></mxCell><mxCell id="50" value="..." style="text;strokeColor=none;fillColor=none;align=left;verticalAlign=top;spacingLeft=4;spacingRight=4;overflow=hidden;rotatable=0;points=[[0,0.5],[1,0.5]];portConstraint=eastwest;" parent="46" vertex="1"><mxGeometry y="124" width="223" height="30" as="geometry"/></mxCell><mxCell id="54" style="edgeStyle=orthogonalEdgeStyle;rounded=1;orthogonalLoop=1;jettySize=auto;html=1;entryX=1;entryY=0.307;entryDx=0;entryDy=0;endArrow=classic;endFill=1;strokeColor=#000000;strokeWidth=2;startArrow=classic;startFill=1;entryPerimeter=0;" parent="WIyWlLk6GJQsqaUBKTNV-1" target="60" edge="1"><mxGeometry relative="1" as="geometry"><mxPoint x="767" y="553" as="sourcePoint"/><mxPoint x="675" y="547.8600000000001" as="targetPoint"/></mxGeometry></mxCell><mxCell id="55" value="1" style="edgeLabel;html=1;align=center;verticalAlign=middle;resizable=0;points=[];" parent="54" vertex="1" connectable="0"><mxGeometry x="-0.2464" y="-4" relative="1" as="geometry"><mxPoint x="17" y="-9" as="offset"/></mxGeometry></mxCell><mxCell id="56" value="*" style="edgeLabel;html=1;align=center;verticalAlign=middle;resizable=0;points=[];" parent="54" vertex="1" connectable="0"><mxGeometry x="-0.186" y="1" relative="1" as="geometry"><mxPoint x="-38" y="-14" as="offset"/></mxGeometry></mxCell><mxCell id="88" value="«interface»&lt;br&gt;&lt;i&gt;Iterator&lt;/i&gt;" style="html=1;" vertex="1" parent="WIyWlLk6GJQsqaUBKTNV-1"><mxGeometry x="385" y="330" width="110" height="50" as="geometry"/></mxCell><mxCell id="91" style="edgeStyle=orthogonalEdgeStyle;rounded=0;orthogonalLoop=1;jettySize=auto;html=1;strokeColor=#000000;strokeWidth=2;dashed=1;" edge="1" parent="WIyWlLk6GJQsqaUBKTNV-1" source="89" target="88"><mxGeometry relative="1" as="geometry"/></mxCell><mxCell id="89" value="«interface»&lt;br&gt;&lt;i&gt;IteratorAggregate&lt;/i&gt;" style="html=1;" vertex="1" parent="WIyWlLk6GJQsqaUBKTNV-1"><mxGeometry x="823.5" y="330" width="110" height="50" as="geometry"/></mxCell><mxCell id="59" value="Untitled Layer" parent="WIyWlLk6GJQsqaUBKTNV-0"/><mxCell id="60" value="" style="rounded=1;whiteSpace=wrap;html=1;align=center;fillColor=none;strokeColor=#B3B3B3;dashed=1;" parent="59" vertex="1"><mxGeometry x="143" y="491" width="551" height="202" as="geometry"/></mxCell><mxCell id="62" style="edgeStyle=orthogonalEdgeStyle;rounded=1;orthogonalLoop=1;jettySize=auto;html=1;entryX=0.5;entryY=0;entryDx=0;entryDy=0;startArrow=none;startFill=0;endArrow=classic;endFill=1;strokeColor=#000000;strokeWidth=2;startSize=2;endSize=2;exitX=0;exitY=0.5;exitDx=0;exitDy=0;" parent="59" source="65" target="88" edge="1"><mxGeometry relative="1" as="geometry"><mxPoint x="627" y="193.25" as="sourcePoint"/><mxPoint x="439" y="309.0000000000001" as="targetPoint"/></mxGeometry></mxCell><mxCell id="63" style="edgeStyle=orthogonalEdgeStyle;rounded=1;orthogonalLoop=1;jettySize=auto;html=1;entryX=0.5;entryY=0;entryDx=0;entryDy=0;startArrow=none;startFill=0;endArrow=classic;endFill=1;strokeColor=#000000;strokeWidth=2;startSize=2;endSize=2;exitX=1;exitY=0.5;exitDx=0;exitDy=0;" parent="59" source="65" target="89" edge="1"><mxGeometry relative="1" as="geometry"><mxPoint x="677" y="193.25" as="sourcePoint"/><mxPoint x="878.5000000000002" y="319.0000000000001" as="targetPoint"/></mxGeometry></mxCell><mxCell id="65" value="Client code" style="html=1;rounded=1;fillColor=none;align=center;" parent="59" vertex="1"><mxGeometry x="597" y="242" width="110" height="50" as="geometry"/></mxCell></root></mxGraphModel></diagram></mxfile>